<?xml version="1.0" encoding="utf-8" standalone="no"?>
<!DOCTYPE svg PUBLIC "-//W3C//DTD SVG 1.1//EN"
  "http://www.w3.org/Graphics/SVG/1.1/DTD/svg11.dtd">
<svg xmlns:xlink="http://www.w3.org/1999/xlink" width="684pt" height="475.2pt" viewBox="0 0 684 475.2" xmlns="http://www.w3.org/2000/svg" version="1.1">
 <metadata>
  <rdf:RDF xmlns:dc="http://purl.org/dc/elements/1.1/" xmlns:cc="http://creativecommons.org/ns#" xmlns:rdf="http://www.w3.org/1999/02/22-rdf-syntax-ns#">
   <cc:Work>
    <dc:type rdf:resource="http://purl.org/dc/dcmitype/StillImage"/>
    <dc:date>2026-06-25T10:53:30.618217</dc:date>
    <dc:format>image/svg+xml</dc:format>
    <dc:creator>
     <cc:Agent>
      <dc:title>Matplotlib v3.10.6, https://matplotlib.org/</dc:title>
     </cc:Agent>
    </dc:creator>
   </cc:Work>
  </rdf:RDF>
 </metadata>
 <defs>
  <style type="text/css">*{stroke-linejoin: round; stroke-linecap: butt}</style>
 </defs>
 <g id="figure_1">
  <g id="patch_1">
   <path d="M 0 475.2 
L 684 475.2 
L 684 0 
L 0 0 
z
" style="fill: #ffffff"/>
  </g>
  <g id="axes_1">
   <g id="patch_2">
    <path d="M 116.12 401.2 
L 647.685 401.2 
L 647.685 23.76 
L 116.12 23.76 
z
" style="fill: #ffffff"/>
   </g>
   <g id="FillBetweenPolyCollection_1">
    <defs>
     <path id="m8bfbebe526" d="M 124.979417 -182.073832 
L 124.979417 -137.923997 
L 142.69825 -144.032547 
L 160.417083 -162.793271 
L 178.135917 -167.824684 
L 195.85475 -154.001835 
L 213.573583 -164.415682 
L 231.292417 -162.652482 
L 249.01125 -165.186769 
L 266.730083 -157.851914 
L 284.448917 -164.659448 
L 302.16775 -180.747526 
L 319.886583 -157.016162 
L 337.605417 -189.406511 
L 355.32425 -184.870956 
L 373.043083 -172.984381 
L 390.761917 -167.072364 
L 408.48075 -184.971049 
L 426.199583 -194.174177 
L 443.918417 -223.383642 
L 461.63725 -209.058506 
L 479.356083 -215.967836 
L 497.074917 -240.378738 
L 514.79375 -218.178784 
L 532.512583 -240.980174 
L 550.231417 -259.182607 
L 567.95025 -308.32461 
L 585.669083 -280.951149 
L 603.387917 -295.042818 
L 621.10675 -344.553147 
L 638.825583 -349.095838 
L 638.825583 -434.283636 
L 638.825583 -434.283636 
L 621.10675 -418.958498 
L 603.387917 -414.949079 
L 585.669083 -382.896727 
L 567.95025 -378.496907 
L 550.231417 -332.6127 
L 532.512583 -308.027034 
L 514.79375 -288.853471 
L 497.074917 -305.844195 
L 479.356083 -287.41617 
L 461.63725 -288.710394 
L 443.918417 -298.687266 
L 426.199583 -269.578604 
L 408.48075 -239.392196 
L 390.761917 -226.277449 
L 373.043083 -221.887389 
L 355.32425 -220.799139 
L 337.605417 -224.136751 
L 319.886583 -213.402895 
L 302.16775 -225.106363 
L 284.448917 -203.993729 
L 266.730083 -197.06238 
L 249.01125 -196.433753 
L 231.292417 -201.722947 
L 213.573583 -201.058012 
L 195.85475 -191.071196 
L 178.135917 -196.002962 
L 160.417083 -190.396045 
L 142.69825 -186.378371 
L 124.979417 -182.073832 
z
" style="stroke: #1b6fc4; stroke-opacity: 0.15"/>
    </defs>
    <g clip-path="url(#p24b1dd4172)">
     <use xlink:href="#m8bfbebe526" x="0" y="475.2" style="fill: #1b6fc4; fill-opacity: 0.15; stroke: #1b6fc4; stroke-opacity: 0.15"/>
    </g>
   </g>
   <g id="FillBetweenPolyCollection_2">
    <defs>
     <path id="mbb2b2fb40c" d="M 124.979417 -190.235516 
L 124.979417 -153.699321 
L 142.69825 -162.279668 
L 160.417083 -181.689336 
L 178.135917 -185.517581 
L 195.85475 -168.240959 
L 213.573583 -179.459722 
L 231.292417 -172.400099 
L 249.01125 -169.346922 
L 266.730083 -157.61814 
L 284.448917 -162.796539 
L 302.16775 -179.132925 
L 319.886583 -150.983971 
L 337.605417 -182.447975 
L 355.32425 -173.884797 
L 373.043083 -155.854617 
L 390.761917 -139.943325 
L 408.48075 -151.169836 
L 426.199583 -150.866761 
L 443.918417 -159.41654 
L 461.63725 -133.33876 
L 479.356083 -134.906982 
L 497.074917 -137.26252 
L 514.79375 -119.609436 
L 532.512583 -119.13228 
L 550.231417 -118.807501 
L 567.95025 -135.14007 
L 585.669083 -105.157328 
L 603.387917 -97.811249 
L 621.10675 -106.649821 
L 638.825583 -91.156364 
L 638.825583 -166.279218 
L 638.825583 -166.279218 
L 621.10675 -182.593956 
L 603.387917 -189.785489 
L 585.669083 -178.801899 
L 567.95025 -195.036736 
L 550.231417 -178.700714 
L 532.512583 -162.650364 
L 514.79375 -154.484164 
L 497.074917 -179.088122 
L 479.356083 -176.5043 
L 461.63725 -190.281243 
L 443.918417 -227.057863 
L 426.199583 -220.944105 
L 408.48075 -208.580183 
L 390.761917 -207.221805 
L 373.043083 -210.156978 
L 355.32425 -213.222302 
L 337.605417 -224.082066 
L 319.886583 -213.408798 
L 302.16775 -230.664798 
L 284.448917 -217.146951 
L 266.730083 -209.64591 
L 249.01125 -209.961026 
L 231.292417 -214.588344 
L 213.573583 -220.213261 
L 195.85475 -207.29972 
L 178.135917 -210.430556 
L 160.417083 -201.730467 
L 142.69825 -194.450736 
L 124.979417 -190.235516 
z
" style="stroke: #c62828; stroke-opacity: 0.15"/>
    </defs>
    <g clip-path="url(#p24b1dd4172)">
     <use xlink:href="#mbb2b2fb40c" x="0" y="475.2" style="fill: #c62828; fill-opacity: 0.15; stroke: #c62828; stroke-opacity: 0.15"/>
    </g>
   </g>
   <g id="matplotlib.axis_1">
    <g id="xtick_1">
     <g id="line2d_1">
      <path d="M 116.12 401.2 
L 116.12 23.76 
" clip-path="url(#p24b1dd4172)" style="fill: none; stroke: #dde3ea; stroke-linecap: square"/>
     </g>
     <g id="line2d_2">
      <defs>
       <path id="m1a3e159dc4" d="M 0 0 
L 0 3.5 
" style="stroke: #000000; stroke-width: 0.8"/>
      </defs>
      <g>
       <use xlink:href="#m1a3e159dc4" x="116.12" y="401.2" style="stroke: #000000; stroke-width: 0.8"/>
      </g>
     </g>
     <g id="text_1">
      <!-- 0.0 -->
      <g transform="translate(101.395 422.0225) scale(0.19 -0.19)">
       <defs>
        <path id="Inter-Regular-30" d="M 2019 -63 
Q 1500 -63 1134 218 
Q 769 500 575 1033 
Q 381 1566 381 2325 
Q 381 3081 576 3615 
Q 772 4150 1137 4434 
Q 1503 4719 2019 4719 
Q 2534 4719 2901 4434 
Q 3269 4150 3462 3615 
Q 3656 3081 3656 2325 
Q 3656 1569 3464 1034 
Q 3272 500 2906 218 
Q 2541 -63 2019 -63 
z
M 2019 456 
Q 2359 456 2596 678 
Q 2834 900 2959 1317 
Q 3084 1734 3084 2325 
Q 3084 2919 2959 3339 
Q 2834 3759 2596 3981 
Q 2359 4203 2019 4203 
Q 1678 4203 1440 3979 
Q 1203 3756 1078 3337 
Q 953 2919 953 2325 
Q 953 1734 1078 1317 
Q 1203 900 1440 678 
Q 1678 456 2019 456 
z
" transform="scale(0.015625)"/>
        <path id="Inter-Regular-2e" d="M 922 -41 
Q 747 -41 623 82 
Q 500 206 500 381 
Q 500 556 623 679 
Q 747 803 922 803 
Q 1097 803 1220 679 
Q 1344 556 1344 381 
Q 1344 206 1220 82 
Q 1097 -41 922 -41 
z
" transform="scale(0.015625)"/>
       </defs>
       <use xlink:href="#Inter-Regular-30"/>
       <use xlink:href="#Inter-Regular-2e" transform="translate(63.085938 0)"/>
       <use xlink:href="#Inter-Regular-30" transform="translate(91.894531 0)"/>
      </g>
     </g>
    </g>
    <g id="xtick_2">
     <g id="line2d_3">
      <path d="M 222.433 401.2 
L 222.433 23.76 
" clip-path="url(#p24b1dd4172)" style="fill: none; stroke: #dde3ea; stroke-linecap: square"/>
     </g>
     <g id="line2d_4">
      <g>
       <use xlink:href="#m1a3e159dc4" x="222.433" y="401.2" style="stroke: #000000; stroke-width: 0.8"/>
      </g>
     </g>
     <g id="text_2">
      <!-- 0.2 -->
      <g transform="translate(207.908391 422.0225) scale(0.19 -0.19)">
       <defs>
        <path id="Inter-Regular-32" d="M 481 0 
L 481 428 
L 2028 2106 
Q 2288 2388 2459 2600 
Q 2631 2813 2718 3005 
Q 2806 3197 2806 3413 
Q 2806 3656 2690 3834 
Q 2575 4013 2378 4108 
Q 2181 4203 1931 4203 
Q 1666 4203 1470 4095 
Q 1275 3988 1169 3792 
Q 1063 3597 1063 3334 
L 494 3334 
Q 494 3747 684 4059 
Q 875 4372 1203 4545 
Q 1531 4719 1947 4719 
Q 2363 4719 2683 4545 
Q 3003 4372 3186 4078 
Q 3369 3784 3369 3419 
Q 3369 3166 3278 2927 
Q 3188 2688 2959 2384 
Q 2731 2081 2319 1644 
L 1300 559 
L 1300 522 
L 3447 522 
L 3447 0 
L 481 0 
z
" transform="scale(0.015625)"/>
       </defs>
       <use xlink:href="#Inter-Regular-30"/>
       <use xlink:href="#Inter-Regular-2e" transform="translate(63.085938 0)"/>
       <use xlink:href="#Inter-Regular-32" transform="translate(91.894531 0)"/>
      </g>
     </g>
    </g>
    <g id="xtick_3">
     <g id="line2d_5">
      <path d="M 328.746 401.2 
L 328.746 23.76 
" clip-path="url(#p24b1dd4172)" style="fill: none; stroke: #dde3ea; stroke-linecap: square"/>
     </g>
     <g id="line2d_6">
      <g>
       <use xlink:href="#m1a3e159dc4" x="328.746" y="401.2" style="stroke: #000000; stroke-width: 0.8"/>
      </g>
     </g>
     <g id="text_3">
      <!-- 0.4 -->
      <g transform="translate(313.8785 422.0225) scale(0.19 -0.19)">
       <defs>
        <path id="Inter-Regular-34" d="M 375 947 
L 375 1431 
L 2413 4656 
L 2772 4656 
L 2772 3913 
L 2531 3913 
L 1009 1506 
L 1009 1469 
L 3766 1469 
L 3766 947 
L 375 947 
z
M 2566 0 
L 2566 1091 
L 2569 1319 
L 2569 4656 
L 3134 4656 
L 3134 0 
L 2566 0 
z
" transform="scale(0.015625)"/>
       </defs>
       <use xlink:href="#Inter-Regular-30"/>
       <use xlink:href="#Inter-Regular-2e" transform="translate(63.085938 0)"/>
       <use xlink:href="#Inter-Regular-34" transform="translate(91.894531 0)"/>
      </g>
     </g>
    </g>
    <g id="xtick_4">
     <g id="line2d_7">
      <path d="M 435.059 401.2 
L 435.059 23.76 
" clip-path="url(#p24b1dd4172)" style="fill: none; stroke: #dde3ea; stroke-linecap: square"/>
     </g>
     <g id="line2d_8">
      <g>
       <use xlink:href="#m1a3e159dc4" x="435.059" y="401.2" style="stroke: #000000; stroke-width: 0.8"/>
      </g>
     </g>
     <g id="text_4">
      <!-- 0.6 -->
      <g transform="translate(420.436422 422.0225) scale(0.19 -0.19)">
       <defs>
        <path id="Inter-Regular-36" d="M 2019 -63 
Q 1728 -63 1437 43 
Q 1147 150 908 400 
Q 669 650 525 1078 
Q 381 1506 381 2150 
Q 381 2766 498 3242 
Q 616 3719 839 4048 
Q 1063 4378 1378 4548 
Q 1694 4719 2091 4719 
Q 2481 4719 2790 4562 
Q 3100 4406 3297 4128 
Q 3494 3850 3550 3484 
L 2969 3484 
Q 2891 3788 2672 3991 
Q 2453 4194 2091 4194 
Q 1734 4194 1476 3984 
Q 1219 3775 1081 3379 
Q 944 2984 944 2425 
L 981 2425 
Q 1106 2619 1281 2758 
Q 1456 2897 1672 2970 
Q 1888 3044 2128 3044 
Q 2528 3044 2859 2847 
Q 3191 2650 3389 2301 
Q 3588 1953 3588 1503 
Q 3588 1069 3394 714 
Q 3200 359 2847 148 
Q 2494 -63 2019 -63 
z
M 2019 459 
Q 2300 459 2525 600 
Q 2750 741 2881 977 
Q 3013 1213 3013 1503 
Q 3013 1788 2886 2020 
Q 2759 2253 2537 2390 
Q 2316 2528 2034 2528 
Q 1822 2528 1639 2445 
Q 1456 2363 1318 2217 
Q 1181 2072 1104 1886 
Q 1028 1700 1028 1497 
Q 1028 1222 1156 986 
Q 1284 750 1509 604 
Q 1734 459 2019 459 
z
" transform="scale(0.015625)"/>
       </defs>
       <use xlink:href="#Inter-Regular-30"/>
       <use xlink:href="#Inter-Regular-2e" transform="translate(63.085938 0)"/>
       <use xlink:href="#Inter-Regular-36" transform="translate(91.894531 0)"/>
      </g>
     </g>
    </g>
    <g id="xtick_5">
     <g id="line2d_9">
      <path d="M 541.372 401.2 
L 541.372 23.76 
" clip-path="url(#p24b1dd4172)" style="fill: none; stroke: #dde3ea; stroke-linecap: square"/>
     </g>
     <g id="line2d_10">
      <g>
       <use xlink:href="#m1a3e159dc4" x="541.372" y="401.2" style="stroke: #000000; stroke-width: 0.8"/>
      </g>
     </g>
     <g id="text_5">
      <!-- 0.8 -->
      <g transform="translate(526.764266 422.0225) scale(0.19 -0.19)">
       <defs>
        <path id="Inter-Regular-38" d="M 1978 -63 
Q 1506 -63 1145 104 
Q 784 272 582 565 
Q 381 859 381 1238 
Q 381 1531 500 1782 
Q 619 2034 825 2203 
Q 1031 2372 1291 2419 
L 1291 2444 
Q 950 2531 750 2822 
Q 550 3113 550 3481 
Q 550 3838 734 4117 
Q 919 4397 1241 4558 
Q 1563 4719 1978 4719 
Q 2388 4719 2709 4558 
Q 3031 4397 3217 4117 
Q 3403 3838 3403 3481 
Q 3403 3113 3201 2822 
Q 3000 2531 2669 2444 
L 2669 2419 
Q 2922 2372 3128 2203 
Q 3334 2034 3456 1782 
Q 3578 1531 3578 1238 
Q 3578 859 3373 565 
Q 3169 272 2808 104 
Q 2447 -63 1978 -63 
z
M 1978 453 
Q 2288 453 2513 554 
Q 2738 656 2861 839 
Q 2984 1022 2984 1269 
Q 2984 1528 2853 1726 
Q 2722 1925 2494 2039 
Q 2266 2153 1978 2153 
Q 1684 2153 1456 2039 
Q 1228 1925 1097 1726 
Q 966 1528 966 1269 
Q 966 1022 1087 839 
Q 1209 656 1437 554 
Q 1666 453 1978 453 
z
M 1978 2650 
Q 2225 2650 2415 2748 
Q 2606 2847 2717 3025 
Q 2828 3203 2828 3438 
Q 2828 3672 2722 3844 
Q 2616 4016 2423 4111 
Q 2231 4206 1978 4206 
Q 1722 4206 1530 4111 
Q 1338 4016 1231 3844 
Q 1125 3672 1125 3438 
Q 1125 3203 1233 3025 
Q 1341 2847 1534 2748 
Q 1728 2650 1978 2650 
z
" transform="scale(0.015625)"/>
       </defs>
       <use xlink:href="#Inter-Regular-30"/>
       <use xlink:href="#Inter-Regular-2e" transform="translate(63.085938 0)"/>
       <use xlink:href="#Inter-Regular-38" transform="translate(91.894531 0)"/>
      </g>
     </g>
    </g>
    <g id="xtick_6">
     <g id="line2d_11">
      <path d="M 647.685 401.2 
L 647.685 23.76 
" clip-path="url(#p24b1dd4172)" style="fill: none; stroke: #dde3ea; stroke-linecap: square"/>
     </g>
     <g id="line2d_12">
      <g>
       <use xlink:href="#m1a3e159dc4" x="647.685" y="401.2" style="stroke: #000000; stroke-width: 0.8"/>
      </g>
     </g>
     <g id="text_6">
      <!-- 1.0 -->
      <g transform="translate(635.090078 422.0225) scale(0.19 -0.19)">
       <defs>
        <path id="Inter-Regular-31" d="M 2041 4656 
L 2041 0 
L 1456 0 
L 1456 4106 
L 1425 4106 
L 300 3272 
L 300 3909 
L 1313 4656 
L 2041 4656 
z
" transform="scale(0.015625)"/>
       </defs>
       <use xlink:href="#Inter-Regular-31"/>
       <use xlink:href="#Inter-Regular-2e" transform="translate(40.673828 0)"/>
       <use xlink:href="#Inter-Regular-30" transform="translate(69.482422 0)"/>
      </g>
     </g>
    </g>
    <g id="text_7">
     <!-- Adoption share -->
     <g transform="translate(302.752344 446.430625) scale(0.22 -0.22)">
      <defs>
       <path id="Inter-Regular-41" d="M 163 0 
L 1853 4656 
L 2541 4656 
L 4253 0 
L 3628 0 
L 2641 2763 
Q 2550 3019 2429 3401 
Q 2309 3784 2138 4378 
L 2250 4378 
Q 2081 3778 1957 3389 
Q 1834 3000 1753 2763 
L 794 0 
L 163 0 
z
M 1013 1300 
L 1013 1819 
L 3403 1819 
L 3403 1300 
L 1013 1300 
z
" transform="scale(0.015625)"/>
       <path id="Inter-Regular-64" d="M 1803 -75 
Q 1369 -75 1034 147 
Q 700 369 512 775 
Q 325 1181 325 1738 
Q 325 2291 514 2695 
Q 703 3100 1037 3319 
Q 1372 3538 1806 3538 
Q 2147 3538 2347 3425 
Q 2547 3313 2655 3170 
Q 2763 3028 2819 2934 
L 2863 2934 
L 2863 4656 
L 3425 4656 
L 3425 0 
L 2881 0 
L 2881 541 
L 2819 541 
Q 2763 444 2652 298 
Q 2541 153 2339 39 
Q 2138 -75 1803 -75 
z
M 1888 428 
Q 2206 428 2425 595 
Q 2644 763 2756 1059 
Q 2869 1356 2869 1744 
Q 2869 2131 2758 2420 
Q 2647 2709 2428 2871 
Q 2209 3034 1888 3034 
Q 1556 3034 1336 2862 
Q 1116 2691 1006 2398 
Q 897 2106 897 1744 
Q 897 1378 1008 1079 
Q 1119 781 1341 604 
Q 1563 428 1888 428 
z
" transform="scale(0.015625)"/>
       <path id="Inter-Regular-6f" d="M 1916 -75 
Q 1441 -75 1083 150 
Q 725 375 525 781 
Q 325 1188 325 1725 
Q 325 2272 525 2680 
Q 725 3088 1083 3313 
Q 1441 3538 1916 3538 
Q 2394 3538 2753 3313 
Q 3113 3088 3313 2680 
Q 3513 2272 3513 1725 
Q 3513 1188 3313 781 
Q 3113 375 2753 150 
Q 2394 -75 1916 -75 
z
M 1916 428 
Q 2269 428 2497 609 
Q 2725 791 2834 1086 
Q 2944 1381 2944 1725 
Q 2944 2072 2834 2370 
Q 2725 2669 2497 2851 
Q 2269 3034 1916 3034 
Q 1566 3034 1341 2851 
Q 1116 2669 1006 2372 
Q 897 2075 897 1725 
Q 897 1381 1006 1086 
Q 1116 791 1341 609 
Q 1566 428 1916 428 
z
" transform="scale(0.015625)"/>
       <path id="Inter-Regular-70" d="M 494 -1306 
L 494 3494 
L 1038 3494 
L 1038 2934 
L 1100 2934 
Q 1159 3028 1265 3170 
Q 1372 3313 1572 3425 
Q 1772 3538 2113 3538 
Q 2550 3538 2883 3319 
Q 3216 3100 3405 2695 
Q 3594 2291 3594 1738 
Q 3594 1181 3406 775 
Q 3219 369 2886 147 
Q 2553 -75 2116 -75 
Q 1784 -75 1581 39 
Q 1378 153 1268 298 
Q 1159 444 1100 541 
L 1056 541 
L 1056 -1306 
L 494 -1306 
z
M 2031 428 
Q 2359 428 2579 604 
Q 2800 781 2911 1079 
Q 3022 1378 3022 1744 
Q 3022 2106 2912 2398 
Q 2803 2691 2583 2862 
Q 2363 3034 2031 3034 
Q 1709 3034 1490 2871 
Q 1272 2709 1161 2420 
Q 1050 2131 1050 1744 
Q 1050 1356 1162 1059 
Q 1275 763 1495 595 
Q 1716 428 2031 428 
z
" transform="scale(0.015625)"/>
       <path id="Inter-Regular-74" d="M 1869 3494 
L 1869 3013 
L 63 3013 
L 63 3494 
L 1869 3494 
z
M 588 4325 
L 1150 4325 
L 1150 906 
Q 1150 672 1245 564 
Q 1341 456 1563 456 
Q 1616 456 1698 468 
Q 1781 481 1850 494 
L 1966 19 
Q 1878 -13 1767 -28 
Q 1656 -44 1547 -44 
Q 1094 -44 841 195 
Q 588 434 588 863 
L 588 4325 
z
" transform="scale(0.015625)"/>
       <path id="Inter-Regular-69" d="M 494 0 
L 494 3494 
L 1056 3494 
L 1056 0 
L 494 0 
z
M 780 4066 
Q 621 4066 505 4175 
Q 389 4284 389 4438 
Q 389 4594 505 4701 
Q 621 4809 780 4809 
Q 942 4809 1058 4701 
Q 1174 4594 1174 4438 
Q 1174 4284 1058 4175 
Q 942 4066 780 4066 
z
" transform="scale(0.015625)"/>
       <path id="Inter-Regular-6e" d="M 1056 2094 
L 1056 0 
L 494 0 
L 494 3494 
L 1034 3494 
L 1038 2647 
L 959 2647 
Q 1119 3131 1414 3334 
Q 1709 3538 2106 3538 
Q 2459 3538 2725 3392 
Q 2991 3247 3139 2955 
Q 3288 2663 3288 2219 
L 3288 0 
L 2725 0 
L 2725 2172 
Q 2725 2575 2514 2803 
Q 2303 3031 1938 3031 
Q 1688 3031 1488 2922 
Q 1288 2813 1172 2603 
Q 1056 2394 1056 2094 
z
" transform="scale(0.015625)"/>
       <path id="Inter-Regular-20" transform="scale(0.015625)"/>
       <path id="Inter-Regular-73" d="M 1681 -75 
Q 1322 -75 1042 29 
Q 763 134 581 340 
Q 400 547 338 847 
L 872 975 
Q 947 688 1155 553 
Q 1363 419 1675 419 
Q 2041 419 2258 575 
Q 2475 731 2475 947 
Q 2475 1128 2348 1248 
Q 2222 1369 1963 1428 
L 1381 1566 
Q 906 1678 675 1914 
Q 444 2150 444 2519 
Q 444 2819 612 3048 
Q 781 3278 1073 3408 
Q 1366 3538 1738 3538 
Q 2097 3538 2348 3430 
Q 2600 3322 2758 3133 
Q 2916 2944 2994 2697 
L 2484 2566 
Q 2413 2753 2245 2906 
Q 2078 3059 1741 3059 
Q 1428 3059 1220 2915 
Q 1013 2772 1013 2553 
Q 1013 2359 1153 2242 
Q 1294 2125 1600 2053 
L 2128 1928 
Q 2603 1816 2831 1580 
Q 3059 1344 3059 984 
Q 3059 678 2886 439 
Q 2713 200 2402 62 
Q 2091 -75 1681 -75 
z
" transform="scale(0.015625)"/>
       <path id="Inter-Regular-68" d="M 1056 2094 
L 1056 0 
L 494 0 
L 494 4656 
L 1056 4656 
L 1056 2647 
L 959 2647 
Q 1119 3131 1414 3334 
Q 1709 3538 2106 3538 
Q 2459 3538 2726 3392 
Q 2994 3247 3142 2955 
Q 3291 2663 3291 2219 
L 3291 0 
L 2725 0 
L 2725 2172 
Q 2725 2575 2514 2803 
Q 2303 3031 1938 3031 
Q 1688 3031 1488 2922 
Q 1288 2813 1172 2603 
Q 1056 2394 1056 2094 
z
" transform="scale(0.015625)"/>
       <path id="Inter-Regular-61" d="M 1472 -81 
Q 1141 -81 870 44 
Q 600 169 440 409 
Q 281 650 281 994 
Q 281 1294 400 1481 
Q 519 1669 717 1776 
Q 916 1884 1156 1937 
Q 1397 1991 1641 2022 
Q 1953 2063 2150 2084 
Q 2347 2106 2442 2159 
Q 2538 2213 2538 2341 
L 2538 2359 
Q 2538 2578 2456 2729 
Q 2375 2881 2212 2962 
Q 2050 3044 1806 3044 
Q 1556 3044 1378 2966 
Q 1200 2888 1089 2770 
Q 978 2653 922 2531 
L 381 2709 
Q 516 3028 744 3208 
Q 972 3388 1247 3463 
Q 1522 3538 1791 3538 
Q 1966 3538 2189 3495 
Q 2413 3453 2620 3328 
Q 2828 3203 2964 2958 
Q 3100 2713 3100 2303 
L 3100 0 
L 2547 0 
L 2547 475 
L 2509 475 
Q 2450 353 2319 223 
Q 2188 94 1978 6 
Q 1769 -81 1472 -81 
z
M 1569 416 
Q 1881 416 2097 537 
Q 2313 659 2425 854 
Q 2538 1050 2538 1263 
L 2538 1747 
Q 2503 1706 2387 1673 
Q 2272 1641 2123 1616 
Q 1975 1591 1836 1573 
Q 1697 1556 1616 1547 
Q 1413 1522 1236 1461 
Q 1059 1400 953 1283 
Q 847 1166 847 966 
Q 847 784 940 662 
Q 1034 541 1196 478 
Q 1359 416 1569 416 
z
" transform="scale(0.015625)"/>
       <path id="Inter-Regular-72" d="M 494 0 
L 494 3494 
L 1038 3494 
L 1038 2956 
L 1075 2956 
Q 1172 3222 1420 3383 
Q 1669 3544 1981 3544 
Q 2044 3544 2130 3541 
Q 2216 3538 2266 3534 
L 2266 2969 
Q 2241 2975 2141 2987 
Q 2041 3000 1928 3000 
Q 1678 3000 1479 2895 
Q 1281 2791 1168 2608 
Q 1056 2425 1056 2188 
L 1056 0 
L 494 0 
z
" transform="scale(0.015625)"/>
       <path id="Inter-Regular-65" d="M 1963 -75 
Q 1456 -75 1089 150 
Q 722 375 523 778 
Q 325 1181 325 1719 
Q 325 2256 519 2665 
Q 713 3075 1067 3306 
Q 1422 3538 1897 3538 
Q 2175 3538 2445 3445 
Q 2716 3353 2936 3148 
Q 3156 2944 3287 2609 
Q 3419 2275 3419 1791 
L 3419 1556 
L 706 1556 
L 706 2031 
L 3116 2031 
L 2853 1856 
Q 2853 2200 2745 2467 
Q 2638 2734 2425 2886 
Q 2213 3038 1897 3038 
Q 1581 3038 1356 2883 
Q 1131 2728 1012 2479 
Q 894 2231 894 1947 
L 894 1631 
Q 894 1244 1028 973 
Q 1163 703 1405 564 
Q 1647 425 1966 425 
Q 2172 425 2340 484 
Q 2509 544 2631 664 
Q 2753 784 2819 963 
L 3363 813 
Q 3281 550 3087 350 
Q 2894 150 2608 37 
Q 2322 -75 1963 -75 
z
" transform="scale(0.015625)"/>
      </defs>
      <use xlink:href="#Inter-Regular-41"/>
      <use xlink:href="#Inter-Regular-64" transform="translate(68.994141 0)"/>
      <use xlink:href="#Inter-Regular-6f" transform="translate(130.224609 0)"/>
      <use xlink:href="#Inter-Regular-70" transform="translate(190.185547 0)"/>
      <use xlink:href="#Inter-Regular-74" transform="translate(251.416016 0)"/>
      <use xlink:href="#Inter-Regular-69" transform="translate(284.130859 0)"/>
      <use xlink:href="#Inter-Regular-6f" transform="translate(308.349609 0)"/>
      <use xlink:href="#Inter-Regular-6e" transform="translate(368.310547 0)"/>
      <use xlink:href="#Inter-Regular-20" transform="translate(427.392578 0)"/>
      <use xlink:href="#Inter-Regular-73" transform="translate(455.517578 0)"/>
      <use xlink:href="#Inter-Regular-68" transform="translate(508.300781 0)"/>
      <use xlink:href="#Inter-Regular-61" transform="translate(567.431641 0)"/>
      <use xlink:href="#Inter-Regular-72" transform="translate(623.583984 0)"/>
      <use xlink:href="#Inter-Regular-65" transform="translate(661.230469 0)"/>
     </g>
    </g>
   </g>
   <g id="matplotlib.axis_2">
    <g id="ytick_1">
     <g id="line2d_13">
      <path d="M 116.12 398.862234 
L 647.685 398.862234 
" clip-path="url(#p24b1dd4172)" style="fill: none; stroke: #dde3ea; stroke-linecap: square"/>
     </g>
     <g id="line2d_14">
      <defs>
       <path id="m8b1ae38d81" d="M 0 0 
L -3.5 0 
" style="stroke: #000000; stroke-width: 0.8"/>
      </defs>
      <g>
       <use xlink:href="#m8b1ae38d81" x="116.12" y="398.862234" style="stroke: #000000; stroke-width: 0.8"/>
      </g>
     </g>
     <g id="text_8">
      <!-- 0.000 -->
      <g transform="translate(55.694375 405.773484) scale(0.19 -0.19)">
       <use xlink:href="#Inter-Regular-30"/>
       <use xlink:href="#Inter-Regular-2e" transform="translate(63.085938 0)"/>
       <use xlink:href="#Inter-Regular-30" transform="translate(91.894531 0)"/>
       <use xlink:href="#Inter-Regular-30" transform="translate(154.980469 0)"/>
       <use xlink:href="#Inter-Regular-30" transform="translate(218.066406 0)"/>
      </g>
     </g>
    </g>
    <g id="ytick_2">
     <g id="line2d_15">
      <path d="M 116.12 354.226244 
L 647.685 354.226244 
" clip-path="url(#p24b1dd4172)" style="fill: none; stroke: #dde3ea; stroke-linecap: square"/>
     </g>
     <g id="line2d_16">
      <g>
       <use xlink:href="#m8b1ae38d81" x="116.12" y="354.226244" style="stroke: #000000; stroke-width: 0.8"/>
      </g>
     </g>
     <g id="text_9">
      <!-- 0.025 -->
      <g transform="translate(56.810625 361.137494) scale(0.19 -0.19)">
       <defs>
        <path id="Inter-Regular-35" d="M 1863 -63 
Q 1453 -63 1128 98 
Q 803 259 609 539 
Q 416 819 400 1175 
L 975 1175 
Q 994 969 1116 806 
Q 1238 644 1433 551 
Q 1628 459 1863 459 
Q 2144 459 2364 590 
Q 2584 722 2709 953 
Q 2834 1184 2834 1478 
Q 2834 1778 2703 2015 
Q 2572 2253 2345 2389 
Q 2119 2525 1825 2525 
Q 1609 2525 1387 2456 
Q 1166 2388 1028 2281 
L 472 2350 
L 747 4656 
L 3197 4656 
L 3197 4134 
L 1247 4134 
L 1088 2775 
L 1113 2775 
Q 1256 2894 1475 2970 
Q 1694 3047 1934 3047 
Q 2253 3047 2523 2931 
Q 2794 2816 2994 2605 
Q 3194 2394 3305 2109 
Q 3416 1825 3416 1488 
Q 3416 1041 3214 691 
Q 3013 341 2663 139 
Q 2313 -63 1863 -63 
z
" transform="scale(0.015625)"/>
       </defs>
       <use xlink:href="#Inter-Regular-30"/>
       <use xlink:href="#Inter-Regular-2e" transform="translate(63.085938 0)"/>
       <use xlink:href="#Inter-Regular-30" transform="translate(91.894531 0)"/>
       <use xlink:href="#Inter-Regular-32" transform="translate(154.980469 0)"/>
       <use xlink:href="#Inter-Regular-35" transform="translate(215.966797 0)"/>
      </g>
     </g>
    </g>
    <g id="ytick_3">
     <g id="line2d_17">
      <path d="M 116.12 309.590254 
L 647.685 309.590254 
" clip-path="url(#p24b1dd4172)" style="fill: none; stroke: #dde3ea; stroke-linecap: square"/>
     </g>
     <g id="line2d_18">
      <g>
       <use xlink:href="#m8b1ae38d81" x="116.12" y="309.590254" style="stroke: #000000; stroke-width: 0.8"/>
      </g>
     </g>
     <g id="text_10">
      <!-- 0.050 -->
      <g transform="translate(56.409844 316.501504) scale(0.19 -0.19)">
       <use xlink:href="#Inter-Regular-30"/>
       <use xlink:href="#Inter-Regular-2e" transform="translate(63.085938 0)"/>
       <use xlink:href="#Inter-Regular-30" transform="translate(91.894531 0)"/>
       <use xlink:href="#Inter-Regular-35" transform="translate(154.980469 0)"/>
       <use xlink:href="#Inter-Regular-30" transform="translate(214.306641 0)"/>
      </g>
     </g>
    </g>
    <g id="ytick_4">
     <g id="line2d_19">
      <path d="M 116.12 264.954265 
L 647.685 264.954265 
" clip-path="url(#p24b1dd4172)" style="fill: none; stroke: #dde3ea; stroke-linecap: square"/>
     </g>
     <g id="line2d_20">
      <g>
       <use xlink:href="#m8b1ae38d81" x="116.12" y="264.954265" style="stroke: #000000; stroke-width: 0.8"/>
      </g>
     </g>
     <g id="text_11">
      <!-- 0.075 -->
      <g transform="translate(57.644844 271.865515) scale(0.19 -0.19)">
       <defs>
        <path id="Inter-Regular-37" d="M 625 0 
L 2694 4097 
L 2694 4134 
L 306 4134 
L 306 4656 
L 3316 4656 
L 3316 4103 
L 1250 0 
L 625 0 
z
" transform="scale(0.015625)"/>
       </defs>
       <use xlink:href="#Inter-Regular-30"/>
       <use xlink:href="#Inter-Regular-2e" transform="translate(63.085938 0)"/>
       <use xlink:href="#Inter-Regular-30" transform="translate(91.894531 0)"/>
       <use xlink:href="#Inter-Regular-37" transform="translate(154.980469 0)"/>
       <use xlink:href="#Inter-Regular-35" transform="translate(211.572266 0)"/>
      </g>
     </g>
    </g>
    <g id="ytick_5">
     <g id="line2d_21">
      <path d="M 116.12 220.318275 
L 647.685 220.318275 
" clip-path="url(#p24b1dd4172)" style="fill: none; stroke: #dde3ea; stroke-linecap: square"/>
     </g>
     <g id="line2d_22">
      <g>
       <use xlink:href="#m8b1ae38d81" x="116.12" y="220.318275" style="stroke: #000000; stroke-width: 0.8"/>
      </g>
     </g>
     <g id="text_12">
      <!-- 0.100 -->
      <g transform="translate(59.954531 227.229525) scale(0.19 -0.19)">
       <use xlink:href="#Inter-Regular-30"/>
       <use xlink:href="#Inter-Regular-2e" transform="translate(63.085938 0)"/>
       <use xlink:href="#Inter-Regular-31" transform="translate(91.894531 0)"/>
       <use xlink:href="#Inter-Regular-30" transform="translate(132.568359 0)"/>
       <use xlink:href="#Inter-Regular-30" transform="translate(195.654297 0)"/>
      </g>
     </g>
    </g>
    <g id="ytick_6">
     <g id="line2d_23">
      <path d="M 116.12 175.682286 
L 647.685 175.682286 
" clip-path="url(#p24b1dd4172)" style="fill: none; stroke: #dde3ea; stroke-linecap: square"/>
     </g>
     <g id="line2d_24">
      <g>
       <use xlink:href="#m8b1ae38d81" x="116.12" y="175.682286" style="stroke: #000000; stroke-width: 0.8"/>
      </g>
     </g>
     <g id="text_13">
      <!-- 0.125 -->
      <g transform="translate(61.070781 182.593536) scale(0.19 -0.19)">
       <use xlink:href="#Inter-Regular-30"/>
       <use xlink:href="#Inter-Regular-2e" transform="translate(63.085938 0)"/>
       <use xlink:href="#Inter-Regular-31" transform="translate(91.894531 0)"/>
       <use xlink:href="#Inter-Regular-32" transform="translate(132.568359 0)"/>
       <use xlink:href="#Inter-Regular-35" transform="translate(193.554688 0)"/>
      </g>
     </g>
    </g>
    <g id="ytick_7">
     <g id="line2d_25">
      <path d="M 116.12 131.046296 
L 647.685 131.046296 
" clip-path="url(#p24b1dd4172)" style="fill: none; stroke: #dde3ea; stroke-linecap: square"/>
     </g>
     <g id="line2d_26">
      <g>
       <use xlink:href="#m8b1ae38d81" x="116.12" y="131.046296" style="stroke: #000000; stroke-width: 0.8"/>
      </g>
     </g>
     <g id="text_14">
      <!-- 0.150 -->
      <g transform="translate(60.67 137.957546) scale(0.19 -0.19)">
       <use xlink:href="#Inter-Regular-30"/>
       <use xlink:href="#Inter-Regular-2e" transform="translate(63.085938 0)"/>
       <use xlink:href="#Inter-Regular-31" transform="translate(91.894531 0)"/>
       <use xlink:href="#Inter-Regular-35" transform="translate(132.568359 0)"/>
       <use xlink:href="#Inter-Regular-30" transform="translate(191.894531 0)"/>
      </g>
     </g>
    </g>
    <g id="ytick_8">
     <g id="line2d_27">
      <path d="M 116.12 86.410306 
L 647.685 86.410306 
" clip-path="url(#p24b1dd4172)" style="fill: none; stroke: #dde3ea; stroke-linecap: square"/>
     </g>
     <g id="line2d_28">
      <g>
       <use xlink:href="#m8b1ae38d81" x="116.12" y="86.410306" style="stroke: #000000; stroke-width: 0.8"/>
      </g>
     </g>
     <g id="text_15">
      <!-- 0.175 -->
      <g transform="translate(61.905 93.321556) scale(0.19 -0.19)">
       <use xlink:href="#Inter-Regular-30"/>
       <use xlink:href="#Inter-Regular-2e" transform="translate(63.085938 0)"/>
       <use xlink:href="#Inter-Regular-31" transform="translate(91.894531 0)"/>
       <use xlink:href="#Inter-Regular-37" transform="translate(132.568359 0)"/>
       <use xlink:href="#Inter-Regular-35" transform="translate(189.160156 0)"/>
      </g>
     </g>
    </g>
    <g id="ytick_9">
     <g id="line2d_29">
      <path d="M 116.12 41.774317 
L 647.685 41.774317 
" clip-path="url(#p24b1dd4172)" style="fill: none; stroke: #dde3ea; stroke-linecap: square"/>
     </g>
     <g id="line2d_30">
      <g>
       <use xlink:href="#m8b1ae38d81" x="116.12" y="41.774317" style="stroke: #000000; stroke-width: 0.8"/>
      </g>
     </g>
     <g id="text_16">
      <!-- 0.200 -->
      <g transform="translate(56.095156 48.685567) scale(0.19 -0.19)">
       <use xlink:href="#Inter-Regular-30"/>
       <use xlink:href="#Inter-Regular-2e" transform="translate(63.085938 0)"/>
       <use xlink:href="#Inter-Regular-32" transform="translate(91.894531 0)"/>
       <use xlink:href="#Inter-Regular-30" transform="translate(152.880859 0)"/>
       <use xlink:href="#Inter-Regular-30" transform="translate(215.966797 0)"/>
      </g>
     </g>
    </g>
    <g id="text_17">
     <!-- Rolling out-of-sample $R^2$ -->
     <g transform="translate(46.854375 342.17) rotate(-90) scale(0.22 -0.22)">
      <defs>
       <path id="Inter-Regular-52" d="M 563 0 
L 563 4656 
L 2156 4656 
Q 2700 4656 3051 4470 
Q 3403 4284 3573 3959 
Q 3744 3634 3744 3219 
Q 3744 2803 3573 2484 
Q 3403 2166 3053 1986 
Q 2703 1806 2159 1806 
L 894 1806 
L 894 2334 
L 2131 2334 
Q 2500 2334 2723 2442 
Q 2947 2550 3050 2748 
Q 3153 2947 3153 3219 
Q 3153 3497 3050 3701 
Q 2947 3906 2722 4020 
Q 2497 4134 2125 4134 
L 1156 4134 
L 1156 0 
L 563 0 
z
M 3238 0 
L 2113 2097 
L 2781 2097 
L 3925 0 
L 3238 0 
z
" transform="scale(0.015625)"/>
       <path id="Inter-Regular-6c" d="M 1056 4656 
L 1056 0 
L 494 0 
L 494 4656 
L 1056 4656 
z
" transform="scale(0.015625)"/>
       <path id="Inter-Regular-67" d="M 1909 -1381 
Q 1522 -1381 1239 -1282 
Q 956 -1184 768 -1021 
Q 581 -859 472 -669 
L 928 -375 
Q 1003 -475 1114 -597 
Q 1225 -719 1414 -805 
Q 1603 -891 1909 -891 
Q 2328 -891 2598 -691 
Q 2869 -491 2869 -59 
L 2869 641 
L 2816 641 
Q 2756 541 2648 403 
Q 2541 266 2339 161 
Q 2138 56 1800 56 
Q 1381 56 1047 254 
Q 713 453 519 834 
Q 325 1216 325 1763 
Q 325 2303 515 2701 
Q 706 3100 1042 3319 
Q 1378 3538 1813 3538 
Q 2150 3538 2351 3427 
Q 2553 3316 2662 3172 
Q 2772 3028 2831 2934 
L 2884 2934 
L 2884 3494 
L 3431 3494 
L 3431 -91 
Q 3431 -541 3228 -827 
Q 3025 -1113 2679 -1247 
Q 2334 -1381 1909 -1381 
z
M 1894 556 
Q 2213 556 2431 701 
Q 2650 847 2762 1120 
Q 2875 1394 2875 1775 
Q 2875 2147 2764 2430 
Q 2653 2713 2434 2873 
Q 2216 3034 1894 3034 
Q 1563 3034 1341 2864 
Q 1119 2694 1008 2409 
Q 897 2125 897 1775 
Q 897 1416 1009 1141 
Q 1122 866 1344 711 
Q 1566 556 1894 556 
z
" transform="scale(0.015625)"/>
       <path id="Inter-Regular-75" d="M 1678 -44 
Q 1325 -44 1058 101 
Q 791 247 642 540 
Q 494 834 494 1275 
L 494 3494 
L 1056 3494 
L 1056 1322 
Q 1056 919 1268 691 
Q 1481 463 1847 463 
Q 2097 463 2295 572 
Q 2494 681 2609 892 
Q 2725 1103 2725 1400 
L 2725 3494 
L 3291 3494 
L 3291 0 
L 2747 0 
L 2747 847 
L 2822 847 
Q 2659 356 2361 156 
Q 2063 -44 1678 -44 
z
" transform="scale(0.015625)"/>
       <path id="Inter-Regular-2d" d="M 2494 2247 
L 2494 1728 
L 450 1728 
L 450 2247 
L 2494 2247 
z
" transform="scale(0.015625)"/>
       <path id="Inter-Regular-66" d="M 2119 3494 
L 2119 3013 
L 63 3013 
L 63 3494 
L 2119 3494 
z
M 750 0 
L 750 3959 
Q 750 4263 892 4466 
Q 1034 4669 1262 4772 
Q 1491 4875 1744 4875 
Q 1944 4875 2075 4842 
Q 2206 4809 2269 4781 
L 2113 4300 
Q 2069 4316 1998 4334 
Q 1928 4353 1809 4353 
Q 1550 4353 1431 4220 
Q 1313 4088 1313 3834 
L 1313 0 
L 750 0 
z
" transform="scale(0.015625)"/>
       <path id="Inter-Regular-6d" d="M 494 0 
L 494 3494 
L 1041 3494 
L 1044 2713 
L 1000 2713 
Q 1072 2997 1226 3183 
Q 1381 3369 1589 3462 
Q 1797 3556 2022 3556 
Q 2403 3556 2639 3322 
Q 2875 3088 2944 2706 
L 2869 2706 
Q 2931 2969 3097 3159 
Q 3263 3350 3498 3453 
Q 3734 3556 4013 3556 
Q 4316 3556 4566 3425 
Q 4816 3294 4964 3028 
Q 5113 2763 5113 2356 
L 5113 0 
L 4550 0 
L 4550 2341 
Q 4550 2719 4337 2881 
Q 4125 3044 3844 3044 
Q 3609 3044 3439 2945 
Q 3269 2847 3176 2675 
Q 3084 2503 3084 2281 
L 3084 0 
L 2522 0 
L 2522 2397 
Q 2522 2688 2328 2866 
Q 2134 3044 1838 3044 
Q 1634 3044 1454 2948 
Q 1275 2853 1165 2665 
Q 1056 2478 1056 2200 
L 1056 0 
L 494 0 
z
" transform="scale(0.015625)"/>
       <path id="DejaVuSans-Oblique-52" d="M 1613 4147 
L 1294 2491 
L 2106 2491 
Q 2584 2491 2879 2755 
Q 3175 3019 3175 3444 
Q 3175 3784 2976 3965 
Q 2778 4147 2406 4147 
L 1613 4147 
z
M 2772 2241 
Q 2972 2194 3105 2009 
Q 3238 1825 3413 1275 
L 3809 0 
L 3144 0 
L 2778 1197 
Q 2638 1659 2453 1815 
Q 2269 1972 1888 1972 
L 1191 1972 
L 806 0 
L 172 0 
L 1081 4666 
L 2503 4666 
Q 3150 4666 3495 4373 
Q 3841 4081 3841 3531 
Q 3841 3044 3547 2687 
Q 3253 2331 2772 2241 
z
" transform="scale(0.015625)"/>
       <path id="DejaVuSans-32" d="M 1228 531 
L 3431 531 
L 3431 0 
L 469 0 
L 469 531 
Q 828 903 1448 1529 
Q 2069 2156 2228 2338 
Q 2531 2678 2651 2914 
Q 2772 3150 2772 3378 
Q 2772 3750 2511 3984 
Q 2250 4219 1831 4219 
Q 1534 4219 1204 4116 
Q 875 4013 500 3803 
L 500 4441 
Q 881 4594 1212 4672 
Q 1544 4750 1819 4750 
Q 2544 4750 2975 4387 
Q 3406 4025 3406 3419 
Q 3406 3131 3298 2873 
Q 3191 2616 2906 2266 
Q 2828 2175 2409 1742 
Q 1991 1309 1228 531 
z
" transform="scale(0.015625)"/>
      </defs>
      <use xlink:href="#Inter-Regular-52" transform="translate(0 0.765625)"/>
      <use xlink:href="#Inter-Regular-6f" transform="translate(64.355469 0.765625)"/>
      <use xlink:href="#Inter-Regular-6c" transform="translate(124.316406 0.765625)"/>
      <use xlink:href="#Inter-Regular-6c" transform="translate(148.535156 0.765625)"/>
      <use xlink:href="#Inter-Regular-69" transform="translate(172.753906 0.765625)"/>
      <use xlink:href="#Inter-Regular-6e" transform="translate(196.972656 0.765625)"/>
      <use xlink:href="#Inter-Regular-67" transform="translate(256.054688 0.765625)"/>
      <use xlink:href="#Inter-Regular-20" transform="translate(317.382812 0.765625)"/>
      <use xlink:href="#Inter-Regular-6f" transform="translate(345.507812 0.765625)"/>
      <use xlink:href="#Inter-Regular-75" transform="translate(405.46875 0.765625)"/>
      <use xlink:href="#Inter-Regular-74" transform="translate(464.599609 0.765625)"/>
      <use xlink:href="#Inter-Regular-2d" transform="translate(497.314453 0.765625)"/>
      <use xlink:href="#Inter-Regular-6f" transform="translate(543.310547 0.765625)"/>
      <use xlink:href="#Inter-Regular-66" transform="translate(603.271484 0.765625)"/>
      <use xlink:href="#Inter-Regular-2d" transform="translate(640.283203 0.765625)"/>
      <use xlink:href="#Inter-Regular-73" transform="translate(686.279297 0.765625)"/>
      <use xlink:href="#Inter-Regular-61" transform="translate(739.0625 0.765625)"/>
      <use xlink:href="#Inter-Regular-6d" transform="translate(795.214844 0.765625)"/>
      <use xlink:href="#Inter-Regular-70" transform="translate(882.8125 0.765625)"/>
      <use xlink:href="#Inter-Regular-6c" transform="translate(944.042969 0.765625)"/>
      <use xlink:href="#Inter-Regular-65" transform="translate(968.261719 0.765625)"/>
      <use xlink:href="#Inter-Regular-20" transform="translate(1026.5625 0.765625)"/>
      <use xlink:href="#DejaVuSans-Oblique-52" transform="translate(1054.6875 0.765625)"/>
      <use xlink:href="#DejaVuSans-32" transform="translate(1131.186693 39.046875) scale(0.7)"/>
     </g>
    </g>
   </g>
   <g id="line2d_31">
    <path d="M 124.979417 315.201086 
L 142.69825 309.994541 
L 160.417083 298.605342 
L 178.135917 293.286177 
L 195.85475 302.663485 
L 213.573583 292.463153 
L 231.292417 293.012285 
L 249.01125 294.389739 
L 266.730083 297.742853 
L 284.448917 290.873411 
L 302.16775 272.273056 
L 319.886583 289.990471 
L 337.605417 268.428369 
L 355.32425 272.364953 
L 373.043083 277.764115 
L 390.761917 278.525093 
L 408.48075 263.018378 
L 426.199583 243.32361 
L 443.918417 214.164546 
L 461.63725 226.31555 
L 479.356083 223.507997 
L 497.074917 202.088534 
L 514.79375 221.683872 
L 532.512583 200.696396 
L 550.231417 179.302346 
L 567.95025 131.789241 
L 585.669083 143.276062 
L 603.387917 120.204051 
L 621.10675 93.444177 
L 638.825583 83.510263 
" clip-path="url(#p24b1dd4172)" style="fill: none; stroke: #1b6fc4; stroke-width: 3; stroke-linecap: square"/>
   </g>
   <g id="line2d_32">
    <path d="M 124.979417 303.232582 
L 142.69825 296.834798 
L 160.417083 283.490099 
L 178.135917 277.225932 
L 195.85475 287.42966 
L 213.573583 275.363508 
L 231.292417 281.705779 
L 249.01125 285.546026 
L 266.730083 291.567975 
L 284.448917 285.228255 
L 302.16775 270.301139 
L 319.886583 293.003615 
L 337.605417 271.93498 
L 355.32425 281.64645 
L 373.043083 292.194203 
L 390.761917 301.617435 
L 408.48075 295.32499 
L 426.199583 289.294567 
L 443.918417 281.962798 
L 461.63725 313.389998 
L 479.356083 319.494359 
L 497.074917 317.024679 
L 514.79375 338.1532 
L 532.512583 334.308678 
L 550.231417 326.445893 
L 567.95025 310.111597 
L 585.669083 333.220386 
L 603.387917 331.401631 
L 621.10675 330.578111 
L 638.825583 346.482209 
" clip-path="url(#p24b1dd4172)" style="fill: none; stroke: #c62828; stroke-width: 3; stroke-linecap: square"/>
   </g>
   <g id="line2d_33">
    <path d="M 116.12 398.862234 
L 647.685 398.862234 
" clip-path="url(#p24b1dd4172)" style="fill: none; stroke: #5b6670; stroke-linecap: square"/>
   </g>
   <g id="patch_3">
    <path d="M 116.12 401.2 
L 116.12 23.76 
" style="fill: none; stroke: #5b6670; stroke-width: 1.2; stroke-linejoin: miter; stroke-linecap: square"/>
   </g>
   <g id="patch_4">
    <path d="M 116.12 401.2 
L 647.685 401.2 
" style="fill: none; stroke: #5b6670; stroke-width: 1.2; stroke-linejoin: miter; stroke-linecap: square"/>
   </g>
   <g id="text_18">
    <!-- up: self-fulfilment -->
    <g style="fill: #1b6fc4" transform="translate(443.488813 79.837138) scale(0.18 -0.18)">
     <defs>
      <path id="Inter-Regular-3a" d="M 922 -41 
Q 747 -41 623 82 
Q 500 206 500 381 
Q 500 556 623 679 
Q 747 803 922 803 
Q 1097 803 1220 679 
Q 1344 556 1344 381 
Q 1344 206 1220 82 
Q 1097 -41 922 -41 
z
M 922 2519 
Q 747 2519 623 2642 
Q 500 2766 500 2941 
Q 500 3116 623 3239 
Q 747 3363 922 3363 
Q 1097 3363 1220 3239 
Q 1344 3116 1344 2941 
Q 1344 2766 1220 2642 
Q 1097 2519 922 2519 
z
" transform="scale(0.015625)"/>
     </defs>
     <use xlink:href="#Inter-Regular-75"/>
     <use xlink:href="#Inter-Regular-70" transform="translate(59.130859 0)"/>
     <use xlink:href="#Inter-Regular-3a" transform="translate(120.361328 0)"/>
     <use xlink:href="#Inter-Regular-20" transform="translate(149.169922 0)"/>
     <use xlink:href="#Inter-Regular-73" transform="translate(177.294922 0)"/>
     <use xlink:href="#Inter-Regular-65" transform="translate(230.078125 0)"/>
     <use xlink:href="#Inter-Regular-6c" transform="translate(288.378906 0)"/>
     <use xlink:href="#Inter-Regular-66" transform="translate(312.597656 0)"/>
     <use xlink:href="#Inter-Regular-2d" transform="translate(349.609375 0)"/>
     <use xlink:href="#Inter-Regular-66" transform="translate(395.605469 0)"/>
     <use xlink:href="#Inter-Regular-75" transform="translate(432.617188 0)"/>
     <use xlink:href="#Inter-Regular-6c" transform="translate(491.748047 0)"/>
     <use xlink:href="#Inter-Regular-66" transform="translate(515.966797 0)"/>
     <use xlink:href="#Inter-Regular-69" transform="translate(552.978516 0)"/>
     <use xlink:href="#Inter-Regular-6c" transform="translate(577.197266 0)"/>
     <use xlink:href="#Inter-Regular-6d" transform="translate(601.416016 0)"/>
     <use xlink:href="#Inter-Regular-65" transform="translate(689.013672 0)"/>
     <use xlink:href="#Inter-Regular-6e" transform="translate(747.314453 0)"/>
     <use xlink:href="#Inter-Regular-74" transform="translate(806.396484 0)"/>
    </g>
   </g>
   <g id="text_19">
    <!-- down: erosion -->
    <g style="fill: #c62828" transform="translate(473.745688 359.577209) scale(0.18 -0.18)">
     <defs>
      <path id="Inter-Regular-77" d="M 1278 0 
L 219 3494 
L 816 3494 
L 1241 1969 
Q 1328 1656 1428 1261 
Q 1528 866 1625 366 
L 1528 366 
Q 1622 844 1719 1241 
Q 1816 1638 1906 1969 
L 2325 3494 
L 2925 3494 
L 3338 1969 
Q 3425 1647 3520 1251 
Q 3616 856 3709 366 
L 3609 366 
Q 3709 850 3807 1245 
Q 3906 1641 3997 1969 
L 4422 3494 
L 5019 3494 
L 3959 0 
L 3400 0 
L 2947 1581 
Q 2878 1822 2812 2072 
Q 2747 2322 2684 2584 
Q 2622 2847 2556 3119 
L 2681 3119 
Q 2619 2850 2555 2586 
Q 2491 2322 2425 2069 
Q 2359 1816 2291 1581 
L 1838 0 
L 1278 0 
z
" transform="scale(0.015625)"/>
     </defs>
     <use xlink:href="#Inter-Regular-64"/>
     <use xlink:href="#Inter-Regular-6f" transform="translate(61.230469 0)"/>
     <use xlink:href="#Inter-Regular-77" transform="translate(121.191406 0)"/>
     <use xlink:href="#Inter-Regular-6e" transform="translate(203.027344 0)"/>
     <use xlink:href="#Inter-Regular-3a" transform="translate(262.109375 0)"/>
     <use xlink:href="#Inter-Regular-20" transform="translate(290.917969 0)"/>
     <use xlink:href="#Inter-Regular-65" transform="translate(319.042969 0)"/>
     <use xlink:href="#Inter-Regular-72" transform="translate(377.34375 0)"/>
     <use xlink:href="#Inter-Regular-6f" transform="translate(414.990234 0)"/>
     <use xlink:href="#Inter-Regular-73" transform="translate(474.951172 0)"/>
     <use xlink:href="#Inter-Regular-69" transform="translate(527.734375 0)"/>
     <use xlink:href="#Inter-Regular-6f" transform="translate(551.953125 0)"/>
     <use xlink:href="#Inter-Regular-6e" transform="translate(611.914062 0)"/>
    </g>
   </g>
   <g id="axes_2">
    <g id="patch_5">
     <path d="M 185.22345 363.456 
L 365.95555 363.456 
L 365.95555 250.224 
L 185.22345 250.224 
z
" style="fill: #ffffff"/>
    </g>
    <g id="matplotlib.axis_3">
     <g id="xtick_7">
      <g id="line2d_34">
       <path d="M 185.22345 363.456 
L 185.22345 250.224 
" clip-path="url(#p19a5cbcfbc)" style="fill: none; stroke: #dde3ea; stroke-linecap: square"/>
      </g>
      <g id="line2d_35">
       <g>
        <use xlink:href="#m1a3e159dc4" x="185.22345" y="363.456" style="stroke: #000000; stroke-width: 0.8"/>
       </g>
      </g>
      <g id="text_20">
       <!-- 0.0 -->
       <g transform="translate(175.92345 379.186) scale(0.12 -0.12)">
        <use xlink:href="#Inter-Regular-30"/>
        <use xlink:href="#Inter-Regular-2e" transform="translate(63.085938 0)"/>
        <use xlink:href="#Inter-Regular-30" transform="translate(91.894531 0)"/>
       </g>
      </g>
     </g>
     <g id="xtick_8">
      <g id="line2d_36">
       <path d="M 221.36987 363.456 
L 221.36987 250.224 
" clip-path="url(#p19a5cbcfbc)" style="fill: none; stroke: #dde3ea; stroke-linecap: square"/>
      </g>
      <g id="line2d_37">
       <g>
        <use xlink:href="#m1a3e159dc4" x="221.36987" y="363.456" style="stroke: #000000; stroke-width: 0.8"/>
       </g>
      </g>
      <g id="text_21">
       <!-- 0.2 -->
       <g transform="translate(212.196432 379.186) scale(0.12 -0.12)">
        <use xlink:href="#Inter-Regular-30"/>
        <use xlink:href="#Inter-Regular-2e" transform="translate(63.085938 0)"/>
        <use xlink:href="#Inter-Regular-32" transform="translate(91.894531 0)"/>
       </g>
      </g>
     </g>
     <g id="xtick_9">
      <g id="line2d_38">
       <path d="M 257.51629 363.456 
L 257.51629 250.224 
" clip-path="url(#p19a5cbcfbc)" style="fill: none; stroke: #dde3ea; stroke-linecap: square"/>
      </g>
      <g id="line2d_39">
       <g>
        <use xlink:href="#m1a3e159dc4" x="257.51629" y="363.456" style="stroke: #000000; stroke-width: 0.8"/>
       </g>
      </g>
      <g id="text_22">
       <!-- 0.4 -->
       <g transform="translate(248.12629 379.186) scale(0.12 -0.12)">
        <use xlink:href="#Inter-Regular-30"/>
        <use xlink:href="#Inter-Regular-2e" transform="translate(63.085938 0)"/>
        <use xlink:href="#Inter-Regular-34" transform="translate(91.894531 0)"/>
       </g>
      </g>
     </g>
     <g id="xtick_10">
      <g id="line2d_40">
       <path d="M 293.66271 363.456 
L 293.66271 250.224 
" clip-path="url(#p19a5cbcfbc)" style="fill: none; stroke: #dde3ea; stroke-linecap: square"/>
      </g>
      <g id="line2d_41">
       <g>
        <use xlink:href="#m1a3e159dc4" x="293.66271" y="363.456" style="stroke: #000000; stroke-width: 0.8"/>
       </g>
      </g>
      <g id="text_23">
       <!-- 0.6 -->
       <g transform="translate(284.427397 379.186) scale(0.12 -0.12)">
        <use xlink:href="#Inter-Regular-30"/>
        <use xlink:href="#Inter-Regular-2e" transform="translate(63.085938 0)"/>
        <use xlink:href="#Inter-Regular-36" transform="translate(91.894531 0)"/>
       </g>
      </g>
     </g>
     <g id="xtick_11">
      <g id="line2d_42">
       <path d="M 329.80913 363.456 
L 329.80913 250.224 
" clip-path="url(#p19a5cbcfbc)" style="fill: none; stroke: #dde3ea; stroke-linecap: square"/>
      </g>
      <g id="line2d_43">
       <g>
        <use xlink:href="#m1a3e159dc4" x="329.80913" y="363.456" style="stroke: #000000; stroke-width: 0.8"/>
       </g>
      </g>
      <g id="text_24">
       <!-- 0.8 -->
       <g transform="translate(320.583192 379.186) scale(0.12 -0.12)">
        <use xlink:href="#Inter-Regular-30"/>
        <use xlink:href="#Inter-Regular-2e" transform="translate(63.085938 0)"/>
        <use xlink:href="#Inter-Regular-38" transform="translate(91.894531 0)"/>
       </g>
      </g>
     </g>
     <g id="xtick_12">
      <g id="line2d_44">
       <path d="M 365.95555 363.456 
L 365.95555 250.224 
" clip-path="url(#p19a5cbcfbc)" style="fill: none; stroke: #dde3ea; stroke-linecap: square"/>
      </g>
      <g id="line2d_45">
       <g>
        <use xlink:href="#m1a3e159dc4" x="365.95555" y="363.456" style="stroke: #000000; stroke-width: 0.8"/>
       </g>
      </g>
      <g id="text_25">
       <!-- 1.0 -->
       <g transform="translate(358.000863 379.186) scale(0.12 -0.12)">
        <use xlink:href="#Inter-Regular-31"/>
        <use xlink:href="#Inter-Regular-2e" transform="translate(40.673828 0)"/>
        <use xlink:href="#Inter-Regular-30" transform="translate(69.482422 0)"/>
       </g>
      </g>
     </g>
    </g>
    <g id="matplotlib.axis_4">
     <g id="ytick_10">
      <g id="line2d_46">
       <path d="M 185.22345 323.863644 
L 365.95555 323.863644 
" clip-path="url(#p19a5cbcfbc)" style="fill: none; stroke: #dde3ea; stroke-linecap: square"/>
      </g>
      <g id="line2d_47">
       <g>
        <use xlink:href="#m8b1ae38d81" x="185.22345" y="323.863644" style="stroke: #000000; stroke-width: 0.8"/>
       </g>
      </g>
      <g id="text_26">
       <!-- 0.3 -->
       <g transform="translate(159.782825 328.228644) scale(0.12 -0.12)">
        <defs>
         <path id="Inter-Regular-33" d="M 1984 -63 
Q 1528 -63 1175 93 
Q 822 250 614 528 
Q 406 806 391 1175 
L 991 1175 
Q 1009 953 1142 792 
Q 1275 631 1492 545 
Q 1709 459 1975 459 
Q 2269 459 2495 561 
Q 2722 663 2853 847 
Q 2984 1031 2984 1272 
Q 2984 1525 2857 1717 
Q 2731 1909 2490 2018 
Q 2250 2128 1903 2128 
L 1525 2128 
L 1525 2644 
L 1903 2644 
Q 2175 2644 2383 2742 
Q 2591 2841 2706 3019 
Q 2822 3197 2822 3438 
Q 2822 3669 2720 3841 
Q 2619 4013 2431 4108 
Q 2244 4203 1991 4203 
Q 1753 4203 1545 4117 
Q 1338 4031 1205 3872 
Q 1072 3713 1063 3484 
L 491 3484 
Q 503 3850 709 4128 
Q 916 4406 1255 4562 
Q 1594 4719 2003 4719 
Q 2438 4719 2752 4544 
Q 3066 4369 3234 4084 
Q 3403 3800 3403 3469 
Q 3403 3075 3195 2800 
Q 2988 2525 2631 2419 
L 2631 2381 
Q 2928 2334 3139 2181 
Q 3350 2028 3461 1793 
Q 3572 1559 3572 1266 
Q 3572 884 3365 584 
Q 3159 284 2800 110 
Q 2441 -63 1984 -63 
z
" transform="scale(0.015625)"/>
        </defs>
        <use xlink:href="#Inter-Regular-30"/>
        <use xlink:href="#Inter-Regular-2e" transform="translate(63.085938 0)"/>
        <use xlink:href="#Inter-Regular-33" transform="translate(91.894531 0)"/>
       </g>
      </g>
     </g>
     <g id="ytick_11">
      <g id="line2d_48">
       <path d="M 185.22345 270.784277 
L 365.95555 270.784277 
" clip-path="url(#p19a5cbcfbc)" style="fill: none; stroke: #dde3ea; stroke-linecap: square"/>
      </g>
      <g id="line2d_49">
       <g>
        <use xlink:href="#m8b1ae38d81" x="185.22345" y="270.784277" style="stroke: #000000; stroke-width: 0.8"/>
       </g>
      </g>
      <g id="text_27">
       <!-- 0.4 -->
       <g transform="translate(159.44345 275.149277) scale(0.12 -0.12)">
        <use xlink:href="#Inter-Regular-30"/>
        <use xlink:href="#Inter-Regular-2e" transform="translate(63.085938 0)"/>
        <use xlink:href="#Inter-Regular-34" transform="translate(91.894531 0)"/>
       </g>
      </g>
     </g>
    </g>
    <g id="line2d_50">
     <path d="M 188.235652 358.309091 
L 194.260055 354.74273 
L 200.284458 347.166572 
L 206.308862 342.571476 
L 212.333265 346.99962 
L 218.357668 342.686655 
L 224.382072 344.41822 
L 230.406475 346.539771 
L 236.430878 348.420164 
L 242.455282 345.534696 
L 248.479685 336.502871 
L 254.504088 346.926542 
L 260.528492 335.345181 
L 266.552895 335.839255 
L 272.577298 336.908568 
L 278.601702 336.545284 
L 284.626105 328.007521 
L 290.650508 321.699653 
L 296.674912 310.194991 
L 302.699315 316.386755 
L 308.723718 317.480187 
L 314.748122 303.790436 
L 320.772525 312.855196 
L 326.796928 301.451161 
L 332.821332 294.23722 
L 338.845735 275.38147 
L 344.870138 278.226601 
L 350.894542 271.347 
L 356.918945 258.279956 
L 362.943348 255.370909 
" clip-path="url(#p19a5cbcfbc)" style="fill: none; stroke: #b8860b; stroke-width: 2.4; stroke-linecap: square"/>
    </g>
    <g id="line2d_51">
     <path d="M 185.22345 350.403327 
L 365.95555 350.403327 
" clip-path="url(#p19a5cbcfbc)" style="fill: none; stroke-dasharray: 3.7,1.6; stroke-dashoffset: 0; stroke: #5b6670"/>
    </g>
    <g id="patch_6">
     <path d="M 185.22345 363.456 
L 185.22345 250.224 
" style="fill: none; stroke: #5b6670; stroke-width: 1.2; stroke-linejoin: miter; stroke-linecap: square"/>
    </g>
    <g id="patch_7">
     <path d="M 185.22345 363.456 
L 365.95555 363.456 
" style="fill: none; stroke: #5b6670; stroke-width: 1.2; stroke-linejoin: miter; stroke-linecap: square"/>
    </g>
    <g id="text_28">
     <!-- effective $\varphi$ -->
     <g style="fill: #b8860b" transform="translate(237.0395 244.224) scale(0.15 -0.15)">
      <defs>
       <path id="Inter-Regular-63" d="M 1916 -75 
Q 1441 -75 1083 150 
Q 725 375 525 781 
Q 325 1188 325 1725 
Q 325 2272 525 2680 
Q 725 3088 1083 3313 
Q 1441 3538 1916 3538 
Q 2169 3538 2394 3472 
Q 2619 3406 2805 3282 
Q 2991 3159 3125 2979 
Q 3259 2800 3331 2572 
L 2791 2419 
Q 2753 2553 2675 2665 
Q 2597 2778 2486 2861 
Q 2375 2944 2231 2989 
Q 2088 3034 1916 3034 
Q 1566 3034 1341 2851 
Q 1116 2669 1006 2372 
Q 897 2075 897 1725 
Q 897 1381 1006 1086 
Q 1116 791 1341 609 
Q 1566 428 1916 428 
Q 2091 428 2237 475 
Q 2384 522 2498 608 
Q 2613 694 2691 812 
Q 2769 931 2806 1072 
L 3344 919 
Q 3275 684 3139 501 
Q 3003 319 2815 189 
Q 2628 59 2400 -8 
Q 2172 -75 1916 -75 
z
" transform="scale(0.015625)"/>
       <path id="Inter-Regular-76" d="M 1503 0 
L 169 3494 
L 784 3494 
L 1528 1422 
Q 1647 1100 1730 779 
Q 1813 459 1903 159 
L 1697 159 
Q 1788 459 1870 779 
Q 1953 1100 2069 1422 
L 2813 3494 
L 3428 3494 
L 2094 0 
L 1503 0 
z
" transform="scale(0.015625)"/>
       <path id="DejaVuSans-Oblique-3c6" d="M 2969 3034 
Q 2766 3034 2675 2581 
L 2259 438 
Q 2553 438 2916 763 
Q 3244 1053 3375 1750 
Q 3497 2400 3300 2750 
Q 3138 3034 2969 3034 
z
M 3063 3525 
Q 3513 3525 3819 3113 
Q 4147 2672 3981 1750 
Q 3828 903 3291 400 
Q 2784 -75 2159 -75 
L 1916 -1331 
L 1344 -1331 
L 1588 -78 
Q 963 -78 641 400 
Q 309 888 475 1747 
Q 647 2641 1166 3097 
Q 1556 3438 2084 3525 
L 1984 3016 
Q 1766 2944 1538 2700 
Q 1194 2341 1081 1747 
Q 963 1116 1156 756 
Q 1334 434 1688 434 
L 2103 2581 
Q 2288 3525 3063 3525 
z
" transform="scale(0.015625)"/>
      </defs>
      <use xlink:href="#Inter-Regular-65" transform="translate(0 0.828125)"/>
      <use xlink:href="#Inter-Regular-66" transform="translate(58.300781 0.828125)"/>
      <use xlink:href="#Inter-Regular-66" transform="translate(95.3125 0.828125)"/>
      <use xlink:href="#Inter-Regular-65" transform="translate(132.324219 0.828125)"/>
      <use xlink:href="#Inter-Regular-63" transform="translate(190.625 0.828125)"/>
      <use xlink:href="#Inter-Regular-74" transform="translate(247.753906 0.828125)"/>
      <use xlink:href="#Inter-Regular-69" transform="translate(280.46875 0.828125)"/>
      <use xlink:href="#Inter-Regular-76" transform="translate(304.6875 0.828125)"/>
      <use xlink:href="#Inter-Regular-65" transform="translate(360.888672 0.828125)"/>
      <use xlink:href="#Inter-Regular-20" transform="translate(419.189453 0.828125)"/>
      <use xlink:href="#DejaVuSans-Oblique-3c6" transform="translate(447.314453 0.828125)"/>
     </g>
    </g>
   </g>
   <g id="legend_1">
    <g id="line2d_52">
     <path d="M 180.968594 48.0325 
L 199.968594 48.0325 
L 218.968594 48.0325 
" style="fill: none; stroke: #1b6fc4; stroke-width: 3; stroke-linecap: square"/>
    </g>
    <g id="text_29">
     <!-- realised return (self-fulfilment) -->
     <g transform="translate(234.168594 54.6825) scale(0.19 -0.19)">
      <defs>
       <path id="Inter-Regular-28" d="M 681 1897 
Q 681 2406 786 2964 
Q 891 3522 1072 4039 
Q 1253 4556 1488 4941 
L 2034 4941 
Q 1794 4450 1617 3919 
Q 1441 3388 1347 2870 
Q 1253 2353 1253 1897 
Q 1253 1481 1336 1056 
Q 1419 631 1592 157 
Q 1766 -316 2034 -872 
L 1488 -872 
Q 1091 -194 886 509 
Q 681 1213 681 1897 
z
" transform="scale(0.015625)"/>
       <path id="Inter-Regular-29" d="M 300 -872 
Q 578 -300 750 176 
Q 922 653 1001 1075 
Q 1081 1497 1081 1897 
Q 1081 2353 987 2870 
Q 894 3388 719 3919 
Q 544 4450 300 4941 
L 847 4941 
Q 1081 4556 1264 4039 
Q 1447 3522 1550 2962 
Q 1653 2403 1653 1897 
Q 1653 1200 1445 497 
Q 1238 -206 847 -872 
L 300 -872 
z
" transform="scale(0.015625)"/>
      </defs>
      <use xlink:href="#Inter-Regular-72"/>
      <use xlink:href="#Inter-Regular-65" transform="translate(37.646484 0)"/>
      <use xlink:href="#Inter-Regular-61" transform="translate(95.947266 0)"/>
      <use xlink:href="#Inter-Regular-6c" transform="translate(152.099609 0)"/>
      <use xlink:href="#Inter-Regular-69" transform="translate(176.318359 0)"/>
      <use xlink:href="#Inter-Regular-73" transform="translate(200.537109 0)"/>
      <use xlink:href="#Inter-Regular-65" transform="translate(253.320312 0)"/>
      <use xlink:href="#Inter-Regular-64" transform="translate(311.621094 0)"/>
      <use xlink:href="#Inter-Regular-20" transform="translate(372.851562 0)"/>
      <use xlink:href="#Inter-Regular-72" transform="translate(400.976562 0)"/>
      <use xlink:href="#Inter-Regular-65" transform="translate(438.623047 0)"/>
      <use xlink:href="#Inter-Regular-74" transform="translate(496.923828 0)"/>
      <use xlink:href="#Inter-Regular-75" transform="translate(529.638672 0)"/>
      <use xlink:href="#Inter-Regular-72" transform="translate(588.769531 0)"/>
      <use xlink:href="#Inter-Regular-6e" transform="translate(626.416016 0)"/>
      <use xlink:href="#Inter-Regular-20" transform="translate(685.498047 0)"/>
      <use xlink:href="#Inter-Regular-28" transform="translate(713.623047 0)"/>
      <use xlink:href="#Inter-Regular-73" transform="translate(750.097656 0)"/>
      <use xlink:href="#Inter-Regular-65" transform="translate(802.880859 0)"/>
      <use xlink:href="#Inter-Regular-6c" transform="translate(861.181641 0)"/>
      <use xlink:href="#Inter-Regular-66" transform="translate(885.400391 0)"/>
      <use xlink:href="#Inter-Regular-2d" transform="translate(922.412109 0)"/>
      <use xlink:href="#Inter-Regular-66" transform="translate(968.408203 0)"/>
      <use xlink:href="#Inter-Regular-75" transform="translate(1005.419922 0)"/>
      <use xlink:href="#Inter-Regular-6c" transform="translate(1064.550781 0)"/>
      <use xlink:href="#Inter-Regular-66" transform="translate(1088.769531 0)"/>
      <use xlink:href="#Inter-Regular-69" transform="translate(1125.78125 0)"/>
      <use xlink:href="#Inter-Regular-6c" transform="translate(1150 0)"/>
      <use xlink:href="#Inter-Regular-6d" transform="translate(1174.21875 0)"/>
      <use xlink:href="#Inter-Regular-65" transform="translate(1261.816406 0)"/>
      <use xlink:href="#Inter-Regular-6e" transform="translate(1320.117188 0)"/>
      <use xlink:href="#Inter-Regular-74" transform="translate(1379.199219 0)"/>
      <use xlink:href="#Inter-Regular-29" transform="translate(1411.914062 0)"/>
     </g>
    </g>
    <g id="line2d_53">
     <path d="M 180.968594 76.078281 
L 199.968594 76.078281 
L 218.968594 76.078281 
" style="fill: none; stroke: #c62828; stroke-width: 3; stroke-linecap: square"/>
    </g>
    <g id="text_30">
     <!-- demand-adjusted (independent signal) -->
     <g transform="translate(234.168594 82.728281) scale(0.19 -0.19)">
      <defs>
       <path id="Inter-Regular-6a" d="M 491 3494 
L 1056 3494 
L 1056 -250 
Q 1059 -581 943 -818 
Q 828 -1056 600 -1181 
Q 372 -1306 31 -1306 
L -81 -1306 
L -81 -788 
L 22 -788 
Q 266 -788 378 -648 
Q 491 -509 491 -250 
L 491 3494 
z
M 772 4066 
Q 613 4066 497 4175 
Q 381 4284 381 4438 
Q 381 4594 497 4701 
Q 613 4809 772 4809 
Q 934 4809 1050 4701 
Q 1166 4594 1166 4438 
Q 1166 4284 1050 4175 
Q 934 4066 772 4066 
z
" transform="scale(0.015625)"/>
      </defs>
      <use xlink:href="#Inter-Regular-64"/>
      <use xlink:href="#Inter-Regular-65" transform="translate(61.230469 0)"/>
      <use xlink:href="#Inter-Regular-6d" transform="translate(119.53125 0)"/>
      <use xlink:href="#Inter-Regular-61" transform="translate(207.128906 0)"/>
      <use xlink:href="#Inter-Regular-6e" transform="translate(263.28125 0)"/>
      <use xlink:href="#Inter-Regular-64" transform="translate(322.363281 0)"/>
      <use xlink:href="#Inter-Regular-2d" transform="translate(383.59375 0)"/>
      <use xlink:href="#Inter-Regular-61" transform="translate(429.589844 0)"/>
      <use xlink:href="#Inter-Regular-64" transform="translate(485.742188 0)"/>
      <use xlink:href="#Inter-Regular-6a" transform="translate(546.972656 0)"/>
      <use xlink:href="#Inter-Regular-75" transform="translate(571.191406 0)"/>
      <use xlink:href="#Inter-Regular-73" transform="translate(630.322266 0)"/>
      <use xlink:href="#Inter-Regular-74" transform="translate(683.105469 0)"/>
      <use xlink:href="#Inter-Regular-65" transform="translate(715.820312 0)"/>
      <use xlink:href="#Inter-Regular-64" transform="translate(774.121094 0)"/>
      <use xlink:href="#Inter-Regular-20" transform="translate(835.351562 0)"/>
      <use xlink:href="#Inter-Regular-28" transform="translate(863.476562 0)"/>
      <use xlink:href="#Inter-Regular-69" transform="translate(899.951172 0)"/>
      <use xlink:href="#Inter-Regular-6e" transform="translate(924.169922 0)"/>
      <use xlink:href="#Inter-Regular-64" transform="translate(983.251953 0)"/>
      <use xlink:href="#Inter-Regular-65" transform="translate(1044.482422 0)"/>
      <use xlink:href="#Inter-Regular-70" transform="translate(1102.783203 0)"/>
      <use xlink:href="#Inter-Regular-65" transform="translate(1164.013672 0)"/>
      <use xlink:href="#Inter-Regular-6e" transform="translate(1222.314453 0)"/>
      <use xlink:href="#Inter-Regular-64" transform="translate(1281.396484 0)"/>
      <use xlink:href="#Inter-Regular-65" transform="translate(1342.626953 0)"/>
      <use xlink:href="#Inter-Regular-6e" transform="translate(1400.927734 0)"/>
      <use xlink:href="#Inter-Regular-74" transform="translate(1460.009766 0)"/>
      <use xlink:href="#Inter-Regular-20" transform="translate(1492.724609 0)"/>
      <use xlink:href="#Inter-Regular-73" transform="translate(1520.849609 0)"/>
      <use xlink:href="#Inter-Regular-69" transform="translate(1573.632812 0)"/>
      <use xlink:href="#Inter-Regular-67" transform="translate(1597.851562 0)"/>
      <use xlink:href="#Inter-Regular-6e" transform="translate(1659.179688 0)"/>
      <use xlink:href="#Inter-Regular-61" transform="translate(1718.261719 0)"/>
      <use xlink:href="#Inter-Regular-6c" transform="translate(1774.414062 0)"/>
      <use xlink:href="#Inter-Regular-29" transform="translate(1798.632812 0)"/>
     </g>
    </g>
   </g>
  </g>
 </g>
 <defs>
  <clipPath id="p24b1dd4172">
   <rect x="116.12" y="23.76" width="531.565" height="377.44"/>
  </clipPath>
  <clipPath id="p19a5cbcfbc">
   <rect x="185.22345" y="250.224" width="180.7321" height="113.232"/>
  </clipPath>
 </defs>
</svg>
